<svg version="1.2" xmlns="http://www.w3.org/2000/svg" viewBox="0 0 100 100" width="100" height="100"><style>.a{fill:#fff}</style><path class="a" d="m41.7 67.9c-1.1 0-2.1-0.5-2.8-1.4-1.2-1.6-0.8-3.8 0.7-4.9l16-11.8-16-11.8c-1.5-1.2-1.9-3.3-0.7-4.9 1.1-1.6 3.3-1.9 4.9-0.7l19.8 14.6c0.9 0.6 1.4 1.7 1.4 2.8 0 1.1-0.5 2.1-1.4 2.8l-19.8 14.6c-0.6 0.5-1.4 0.7-2.1 0.7z"/><path fill-rule="evenodd" class="a" d="m49.7 99.3c-27.3 0-49.5-22.2-49.5-49.5 0-27.3 22.2-49.5 49.5-49.5 27.3 0 49.5 22.2 49.5 49.5 0 27.3-22.2 49.5-49.5 49.5zm0-96c-25.7 0-46.5 20.8-46.5 46.5 0 25.6 20.8 46.5 46.5 46.5 25.6 0 46.5-20.9 46.5-46.5 0-25.7-20.9-46.5-46.5-46.5z"/></svg>