<svg version="1.2" xmlns="http://www.w3.org/2000/svg" viewBox="0 0 364 333" width="364" height="333"><style>.a{fill:#fff}.b{fill:#ff4b4b}</style><path fill-rule="evenodd" class="a" d="m33.5 332.8q-7.1 0-13.3-2.3-6.1-2.3-10.6-6.5-4.5-4.2-7-9.8-2.5-5.7-2.5-12.4 0-6.8 2.5-12.4 2.5-5.6 7-9.8 4.5-4.2 10.6-6.5 6.2-2.3 13.3-2.3 7.3 0 13.4 2.3 6.1 2.3 10.6 6.5 4.5 4.2 7 9.8 2.5 5.6 2.5 12.4 0 6.7-2.5 12.4-2.5 5.6-7 9.8-4.5 4.2-10.6 6.5-6.1 2.3-13.4 2.3zm0-16.2q2.8 0 5.2-1 2.5-1 4.3-2.9 1.8-1.9 2.8-4.7 1-2.7 1-6.2 0-3.5-1-6.2-1-2.8-2.8-4.7-1.8-1.9-4.3-2.9-2.4-1-5.2-1-2.7 0-5.2 1-2.4 1-4.2 2.9-1.8 1.9-2.8 4.7-1 2.7-1 6.2 0 3.5 1 6.2 1 2.8 2.8 4.7 1.8 1.9 4.2 2.9 2.5 1 5.2 1z"/><path fill-rule="evenodd" class="a" d="m67 331.4l25.8-59.2h19.7l25.8 59.2h-20.6l-4-10.3h6l-5-14.4h-6.5l-5.7-14.9-5.8 14.9h-9.3l-5.1 14.4h8.9l-3.9 10.3zm35.5-39.6l3.9-10.1h-7.8zm11.2 29.3l-5.5-14.4h-11.4l-5.6 14.4z"/><path class="a" d="m163.6 332.8q-7.4 0-14.4-1.7-6.9-1.7-11.4-4.4l6.5-14.6q4.2 2.5 9.4 4 5.2 1.4 10.1 1.4 2.9 0 4.5-0.3 1.7-0.4 2.4-1.1 0.8-0.8 0.8-1.8 0-1.6-1.8-2.5-1.8-0.9-4.7-1.6-2.9-0.6-6.4-1.3-3.4-0.8-6.9-1.9-3.6-1.2-6.5-3.2-2.9-1.9-4.7-5.1-1.7-3.2-1.7-7.9 0-5.5 3-10 3.1-4.5 9.3-7.2 6.1-2.8 15.2-2.8 6 0 11.9 1.3 5.8 1.3 10.5 3.9l-6 14.5q-4.4-2.2-8.5-3.3-4.1-1.1-8-1.1-2.9 0-4.6 0.5-1.7 0.5-2.4 1.3-0.7 0.9-0.7 1.9 0 1.5 1.7 2.4 1.8 0.9 4.7 1.5 3 0.6 6.5 1.3 3.5 0.6 6.9 1.8 3.5 1.2 6.4 3.1 2.9 2 4.7 5.1 1.8 3.1 1.8 7.8 0 5.4-3.1 9.9-3.1 4.6-9.2 7.3-6.1 2.8-15.3 2.8z"/><path class="a" d="m197.1 331.4v-59.2h20v59.2z"/><path class="a" d="m248.8 332.8q-7.5 0-14.4-1.7-6.9-1.7-11.4-4.4l6.4-14.6q4.3 2.5 9.5 4 5.2 1.4 10.1 1.4 2.8 0 4.5-0.3 1.6-0.4 2.4-1.1 0.8-0.8 0.8-1.8 0-1.6-1.8-2.5-1.8-0.9-4.7-1.6-2.9-0.6-6.4-1.3-3.5-0.8-7-1.9-3.5-1.2-6.4-3.2-2.9-1.9-4.7-5.1-1.8-3.2-1.8-7.9 0-5.5 3.1-10 3.1-4.5 9.2-7.2 6.2-2.8 15.3-2.8 6 0 11.8 1.3 5.9 1.3 10.5 3.9l-6 14.5q-4.4-2.2-8.5-3.3-4.1-1.1-8-1.1-2.8 0-4.5 0.5-1.7 0.5-2.5 1.3-0.7 0.9-0.7 1.9 0 1.5 1.8 2.4 1.8 0.9 4.7 1.5 2.9 0.6 6.4 1.3 3.5 0.6 7 1.8 3.5 1.2 6.4 3.1 2.9 2 4.7 5.1 1.8 3.1 1.8 7.8 0 5.4-3.1 9.9-3.1 4.6-9.2 7.3-6.1 2.8-15.3 2.8z"/><path class="a" d="m298.1 331.4l26.3-36.9v14l-25.6-36.3h22.4l14.9 22-9.5 0.1 14.5-22.1h21.5l-25.6 35.5v-13.8l26.9 37.5h-22.9l-14.9-23 9.3-0.1-14.6 23.1z"/><path class="b" d="m214.4 192.2l-23.2 36.1-3.3-113.7c2.7 5 6 10.4 9.5 15.8l6-1.5-2.4 6.9c2.2 3.3 4.5 6.5 6.7 9.6l6.7-3-2.6 8.7c6.5 8.7 11.4 14.9 11.4 14.9 10.2-40.1-32.8-60.3-32.8-60.3 9 3.2 17.7 7.8 25.7 12.7l3.7-2.3 0.5 5c3.6 2.3 6.9 4.6 9.9 6.9l3.8-3.8 0.9 7.4c9.2 7.1 15 12.7 15 12.7-0.2-55.5-59.5-45-59.5-45 8.3-3.2 16.9-5.1 25.1-6.3l1.1-4.1 3.6 3.5c3.3-0.3 6.6-0.6 9.6-0.7v-4.4l5.9 4.2c12.1-0.2 20.4 1 20.4 1 0 0-20.6-37.1-68.2 0.3 0 0 3-6.5 18.4-18.1l-1.3-3.8 4.8 1.2q3.8-2.7 8.6-5.8l-2.1-3.8 6.9 0.8c4.6-2.9 9.8-5.9 15.6-9.1 0 0-40.5-16.6-56.8 33.4-16.3-50-56.8-33.4-56.8-33.4 5.8 3.2 11 6.2 15.6 9.1l6.9-0.8-2.1 3.8q4.8 3.1 8.6 5.8l4.8-1.2-1.3 3.8c15.4 11.6 18.4 18.1 18.4 18.1-47.6-37.4-68.2-0.3-68.2-0.3 0 0 9.9-1.4 23.8-0.9l5.9-4.3v4.6q4.5 0.3 9.3 0.9l3.9-3.9 1.3 4.7c7.1 1.2 14.4 3 21.5 5.7 0 0-59.3-10.5-59.5 45 0 0 5.8-5.6 15-12.7l0.9-7.4 3.8 3.8c3-2.3 6.3-4.6 9.9-6.9l0.5-5 3.7 2.3c8-4.9 16.7-9.5 25.7-12.7 0 0-43 20.2-32.8 60.3 0 0 5-6.3 11.5-15.1l-2.5-8.5 6.6 2.9c2.2-3.1 4.5-6.4 6.8-9.7l-2.4-6.7 5.8 1.5c3.6-5.4 6.8-10.9 9.5-15.8l-1.5 113.7-23.4-36.1h-80.1c-10.8-18.8-17.1-40.6-17.1-63.9 0-70.6 57.3-127.9 128-127.9 70.7 0 128 57.3 128 127.9 0 23.3-6.3 45.1-17.1 63.9z"/></svg>