<?xml version="1.0" encoding="UTF-8"?><svg id="a" xmlns="http://www.w3.org/2000/svg" viewBox="0 0 1562.1 1427.56"><defs><style>.b{fill:#ff4b4b;}.c{fill:#232323;}</style></defs><g><path class="c" d="M276.24,1241.4c-7.15-16.1-17.14-30.15-29.97-42.14-12.84-11.99-27.97-21.25-45.4-27.79-17.44-6.54-36.57-9.81-57.39-9.81s-39.65,3.27-57.21,9.81c-17.56,6.54-32.75,15.8-45.58,27.79-12.84,11.99-22.83,26.04-29.97,42.14-7.15,16.11-10.72,33.84-10.72,53.21s3.57,36.81,10.72,53.03c7.14,16.23,17.13,30.33,29.97,42.32,12.83,11.99,28.02,21.25,45.58,27.79,17.55,6.54,36.62,9.81,57.21,9.81s39.96-3.27,57.39-9.81c17.44-6.54,32.57-15.8,45.4-27.79,12.83-11.99,22.82-26.09,29.97-42.32,7.14-16.22,10.72-33.9,10.72-53.03s-3.58-37.11-10.72-53.21Zm-80.09,79.91c-2.91,7.87-6.96,14.53-12.17,19.98-5.21,5.45-11.26,9.63-18.16,12.53-6.9,2.91-14.35,4.36-22.34,4.36s-15.44-1.45-22.34-4.36c-6.9-2.9-12.96-7.08-18.16-12.53-5.21-5.45-9.26-12.11-12.17-19.98-2.91-7.87-4.36-16.77-4.36-26.7s1.45-18.83,4.36-26.7c2.91-7.87,6.96-14.53,12.17-19.98,5.2-5.45,11.26-9.63,18.16-12.53,6.9-2.91,14.35-4.36,22.34-4.36s15.44,1.45,22.34,4.36c6.9,2.9,12.95,7.08,18.16,12.53,5.2,5.45,9.26,12.11,12.17,19.98,2.91,7.87,4.36,16.77,4.36,26.7s-1.45,18.83-4.36,26.7Z"/><path class="c" d="M398.1,1167.48l-111.15,254.26h87.18l17.03-44.31h96.7l17.03,44.31h88.63l-111.15-254.26h-84.27Zm16.79,148.2l24.62-64.04,24.62,64.04h-49.23Z"/><path class="c" d="M792.76,1286.62c-8.35-5.57-17.5-10.05-27.42-13.44-9.93-3.39-19.92-6.05-29.97-7.99-10.05-1.93-19.25-3.75-27.61-5.45-8.35-1.69-15.07-3.81-20.16-6.36-5.09-2.54-7.63-5.99-7.63-10.35,0-2.91,1.03-5.57,3.09-7.99,2.05-2.42,5.5-4.36,10.35-5.81,4.84-1.45,11.38-2.18,19.61-2.18,11.14,0,22.58,1.58,34.33,4.72,11.74,3.15,23.91,7.87,36.5,14.17l25.79-62.11c-13.32-7.5-28.33-13.08-45.04-16.71-16.71-3.63-33.66-5.45-50.85-5.45-26.15,0-48.01,3.87-65.56,11.62-17.56,7.75-30.76,18.1-39.59,31.06-8.84,12.96-13.26,27.3-13.26,43.04,0,13.56,2.54,24.88,7.63,33.96,5.09,9.08,11.81,16.41,20.16,21.98,8.35,5.57,17.55,10.05,27.61,13.44,10.05,3.39,20.03,6.12,29.97,8.17,9.93,2.06,19.07,4,27.42,5.81,8.35,1.82,15.07,4.06,20.16,6.72,5.08,2.67,7.63,6.3,7.63,10.9,0,2.9-1.09,5.39-3.27,7.45-2.18,2.06-5.63,3.63-10.35,4.72-4.72,1.09-11.2,1.63-19.43,1.63-14.05,0-28.51-2.12-43.41-6.36-14.89-4.23-28.4-9.86-40.5-16.89l-27.61,62.48c12.83,7.75,29.18,14.05,49.04,18.89,19.85,4.84,40.44,7.27,61.75,7.27,26.39,0,48.31-3.94,65.74-11.8,17.44-7.87,30.57-18.28,39.41-31.24,8.84-12.95,13.26-27.18,13.26-42.68,0-13.31-2.54-24.46-7.63-33.42-5.08-8.96-11.81-16.22-20.16-21.79Z"/><rect class="c" x="845.97" y="1167.48" width="85.72" height="254.26"/><path class="c" d="M1158.53,1286.62c-8.35-5.57-17.5-10.05-27.42-13.44-9.93-3.39-19.92-6.05-29.97-7.99-10.05-1.93-19.25-3.75-27.61-5.45-8.35-1.69-15.07-3.81-20.16-6.36-5.08-2.54-7.63-5.99-7.63-10.35,0-2.91,1.03-5.57,3.09-7.99,2.06-2.42,5.51-4.36,10.35-5.81,4.84-1.45,11.38-2.18,19.62-2.18,11.13,0,22.58,1.58,34.33,4.72,11.74,3.15,23.91,7.87,36.5,14.17l25.79-62.11c-13.32-7.5-28.33-13.08-45.04-16.71-16.71-3.63-33.66-5.45-50.85-5.45-26.15,0-48.01,3.87-65.56,11.62-17.56,7.75-30.76,18.1-39.59,31.06-8.84,12.96-13.26,27.3-13.26,43.04,0,13.56,2.54,24.88,7.63,33.96,5.09,9.08,11.81,16.41,20.16,21.98,8.35,5.57,17.55,10.05,27.61,13.44,10.05,3.39,20.04,6.12,29.97,8.17,9.93,2.06,19.07,4,27.42,5.81,8.35,1.82,15.07,4.06,20.16,6.72,5.08,2.67,7.63,6.3,7.63,10.9,0,2.9-1.09,5.39-3.27,7.45-2.18,2.06-5.63,3.63-10.35,4.72-4.72,1.09-11.2,1.63-19.43,1.63-14.05,0-28.51-2.12-43.4-6.36-14.89-4.23-28.4-9.86-40.5-16.89l-27.61,62.48c12.83,7.75,29.18,14.05,49.04,18.89,19.85,4.84,40.44,7.27,61.75,7.27,26.39,0,48.31-3.94,65.75-11.8,17.44-7.87,30.57-18.28,39.41-31.24,8.84-12.95,13.26-27.18,13.26-42.68,0-13.31-2.54-24.46-7.63-33.42-5.09-8.96-11.81-16.22-20.16-21.79Z"/><polygon class="c" points="1562.1 1421.74 1468.3 1290.36 1556.65 1167.48 1464.39 1167.48 1422.28 1231.38 1379.03 1167.48 1282.78 1167.48 1371.38 1293.35 1279.51 1421.74 1377.22 1421.74 1420.04 1353.77 1464.03 1421.74 1562.1 1421.74"/></g><path class="b" d="M920.37,823.95l-99.68,154.88-14.11-488.26c11.23,21.35,25.4,44.66,40.54,67.88l25.66-6.41-10.27,29.52c9.65,14.2,19.41,28.1,28.84,41.22l28.96-12.62-11.13,37.09c27.75,37.56,49.01,64.07,49.01,64.07,43.62-172.3-141.09-258.85-141.09-258.85,38.53,13.59,76.21,33.25,110.29,54.31l15.93-9.61,2.35,21.23c15.17,9.94,29.44,19.99,42.56,29.7l16.35-16.05,3.88,31.42c39.34,30.68,64.13,54.69,64.13,54.69-.79-238.48-255.49-193.29-255.49-193.29,35.62-13.66,72.75-22.04,107.93-27.01l4.73-17.41,15.28,14.92c14.36-1.56,28.28-2.6,41.47-3.22v-18.7l25.12,17.94c51.84-.67,87.65,4.31,87.65,4.31,0,0-88.49-159.36-292.7,1.28,0,0,12.71-27.94,78.92-77.82l-5.56-16.22,20.39,5.34c11-7.87,23.26-16.22,36.88-25.03l-8.78-16.52,29.51,3.44c19.74-12.17,41.97-25.1,67.03-38.77,0,0-173.98-71.67-243.92,143.34-69.94-215-243.92-143.34-243.92-143.34,25.06,13.67,47.29,26.61,67.03,38.77l29.51-3.44-8.78,16.52c13.62,8.8,25.89,17.16,36.88,25.03l20.39-5.34-5.56,16.22c66.2,49.87,78.92,77.82,78.92,77.82-204.2-160.64-292.7-1.28-292.7-1.28,0,0,42.58-5.91,102.09-3.97l25.59-18.28v19.57c12.81,.88,26.16,2.15,39.85,3.93l16.89-16.5,5.39,19.82c30.45,5.13,61.96,12.94,92.37,24.6,0,0-254.69-45.19-255.49,193.29,0,0,24.79-24,64.13-54.69l3.88-31.42,16.35,16.05c13.12-9.71,27.4-19.76,42.56-29.7l2.35-21.23,15.93,9.61c34.08-21.05,71.76-40.71,110.29-54.31,0,0-184.71,86.55-141.09,258.85,0,0,21.57-26.9,49.62-64.9l-10.88-36.26,28.3,12.34c9.55-13.29,19.44-27.38,29.2-41.77l-9.98-28.68,24.91,6.23c15.1-23.16,29.22-46.4,40.42-67.7l-6.21,488.26-100.33-154.88H304.83c-46.63-80.75-73.35-174.43-73.35-274.38C231.48,246.05,477.53,0,781.05,0s549.57,246.05,549.57,549.57c0,99.95-26.72,193.63-73.35,274.38h-336.89Z"/></svg>